<svg xmlns="http://www.w3.org/2000/svg" version="1.1" xmlns:xlink="http://www.w3.org/1999/xlink" xmlns:svgjs="http://svgjs.com/svgjs" width="1440" height="662" preserveAspectRatio="none" viewBox="0 0 1440 662"><g mask="url(&quot;#SvgjsMask2720&quot;)" fill="none"><rect width="1440" height="662" x="0" y="0" fill="#0e2a47"></rect><path d="M277.25 348.83 L391.91 205.70999999999998L224.39155026064753 167.08155026064748z" stroke="#e73635" stroke-width="2.05" stroke-dasharray="2, 2"></path><rect width="84" height="84" clip-path="url(&quot;#SvgjsClipPath2721&quot;)" x="632.16" y="373.24" fill="url(#SvgjsPattern2722)" transform="rotate(239.39, 674.16, 415.24)"></rect><circle r="65.4020736291813" cx="238.6" cy="466.02" fill="#037b0b"></circle><circle r="109.07828981675135" cx="1246.76" cy="420.24" fill="#037b0b"></circle><path d="M603.67 535.35a5.6 5.6 0 1 0-5.47-9.77 5.6 5.6 0 1 0 5.47 9.77zM595.85 521.39a5.6 5.6 0 1 0-5.47-9.77 5.6 5.6 0 1 0 5.47 9.77zM588.03 507.43a5.6 5.6 0 1 0-5.47-9.77 5.6 5.6 0 1 0 5.47 9.77zM580.22 493.47a5.6 5.6 0 1 0-5.48-9.77 5.6 5.6 0 1 0 5.48 9.77zM633.27 555.45a5.6 5.6 0 1 0-5.48-9.77 5.6 5.6 0 1 0 5.48 9.77zM625.45 541.49a5.6 5.6 0 1 0-5.47-9.77 5.6 5.6 0 1 0 5.47 9.77zM617.63 527.53a5.6 5.6 0 1 0-5.47-9.77 5.6 5.6 0 1 0 5.47 9.77zM609.81 513.58a5.6 5.6 0 1 0-5.47-9.78 5.6 5.6 0 1 0 5.47 9.78zM662.86 575.56a5.6 5.6 0 1 0-5.47-9.78 5.6 5.6 0 1 0 5.47 9.78zM655.04 561.6a5.6 5.6 0 1 0-5.47-9.78 5.6 5.6 0 1 0 5.47 9.78zM647.23 547.64a5.6 5.6 0 1 0-5.48-9.78 5.6 5.6 0 1 0 5.48 9.78zM639.41 533.68a5.6 5.6 0 1 0-5.47-9.77 5.6 5.6 0 1 0 5.47 9.77z" fill="#037b0b"></path><path d="M774.42 70.1a5.6 5.6 0 1 0-11.2 0.15 5.6 5.6 0 1 0 11.2-0.15zM758.42 70.31a5.6 5.6 0 1 0-11.2 0.16 5.6 5.6 0 1 0 11.2-0.16zM742.42 70.53a5.6 5.6 0 1 0-11.2 0.15 5.6 5.6 0 1 0 11.2-0.15zM726.42 70.75a5.6 5.6 0 1 0-11.19 0.15 5.6 5.6 0 1 0 11.19-0.15z" stroke="#d3b714" stroke-width="1.07" stroke-dasharray="4, 4"></path><rect width="355.68" height="355.68" clip-path="url(&quot;#SvgjsClipPath2723&quot;)" x="540.2" y="106.02" fill="url(#SvgjsPattern2724)" transform="rotate(136.78, 718.04, 283.86)"></rect><path d="M867.14 209.06a5.6 5.6 0 1 0-7.73-8.1 5.6 5.6 0 1 0 7.73 8.1zM856.09 197.49a5.6 5.6 0 1 0-7.73-8.1 5.6 5.6 0 1 0 7.73 8.1zM845.04 185.92a5.6 5.6 0 1 0-7.73-8.1 5.6 5.6 0 1 0 7.73 8.1zM833.99 174.35a5.6 5.6 0 1 0-7.73-8.1 5.6 5.6 0 1 0 7.73 8.1zM900.81 221.16a5.6 5.6 0 1 0-7.73-8.1 5.6 5.6 0 1 0 7.73 8.1zM889.76 209.58a5.6 5.6 0 1 0-7.73-8.1 5.6 5.6 0 1 0 7.73 8.1zM878.71 198.01a5.6 5.6 0 1 0-7.73-8.1 5.6 5.6 0 1 0 7.73 8.1zM867.66 186.44a5.6 5.6 0 1 0-7.73-8.1 5.6 5.6 0 1 0 7.73 8.1zM934.48 233.25a5.6 5.6 0 1 0-7.73-8.1 5.6 5.6 0 1 0 7.73 8.1zM923.43 221.68a5.6 5.6 0 1 0-7.73-8.1 5.6 5.6 0 1 0 7.73 8.1zM912.38 210.11a5.6 5.6 0 1 0-7.73-8.1 5.6 5.6 0 1 0 7.73 8.1zM901.33 198.53a5.6 5.6 0 1 0-7.73-8.1 5.6 5.6 0 1 0 7.73 8.1z" fill="#d3b714"></path><path d="M241.78 623.71L253.79 619.25 260.77 629.98 272.78 625.52 279.76 636.26 291.77 631.8 298.75 642.53M239.27 631.31L251.28 626.85 258.26 637.58 270.27 633.12 277.25 643.85 289.26 639.39 296.25 650.12" stroke="#d3b714" stroke-width="1.13" stroke-dasharray="3, 2"></path><rect width="96" height="96" clip-path="url(&quot;#SvgjsClipPath2725&quot;)" x="279.22" y="14.28" fill="url(#SvgjsPattern2726)" transform="rotate(351.65, 327.22, 62.28)"></rect></g><defs><mask id="SvgjsMask2720"><rect width="1440" height="662" fill="#ffffff"></rect></mask><pattern x="0" y="0" width="84" height="6" patternUnits="userSpaceOnUse" id="SvgjsPattern2722"><rect width="84" height="3" x="0" y="0" fill="#d3b714"></rect><rect width="84" height="3" x="0" y="3" fill="rgba(0, 0, 0, 0)"></rect></pattern><clipPath id="SvgjsClipPath2721"><circle r="21" cx="674.16" cy="415.24"></circle></clipPath><pattern x="0" y="0" width="9.88" height="9.88" patternUnits="userSpaceOnUse" id="SvgjsPattern2724"><path d="M4.94 1L4.94 8.88M1 4.94L8.88 4.94" stroke="#e73635" fill="none" stroke-width="1"></path></pattern><clipPath id="SvgjsClipPath2723"><circle r="88.92" cx="718.04" cy="283.86"></circle></clipPath><pattern x="0" y="0" width="8" height="8" patternUnits="userSpaceOnUse" id="SvgjsPattern2726"><path d="M4 1L4 7M1 4L7 4" stroke="#d3b714" fill="none" stroke-width="1.21"></path></pattern><clipPath id="SvgjsClipPath2725"><circle r="24" cx="327.22" cy="62.28"></circle></clipPath></defs></svg>